HIERARCHY
ROOT hip
{
  OFFSET -4.61556 83.7634 35.1154
  CHANNELS 6 Xposition Yposition Zposition Zrotation Xrotation Yrotation
  JOINT abdomen
  {
    OFFSET 0 20.6881 -0.73152
    CHANNELS 3 Zrotation Xrotation Yrotation
    JOINT chest
    {
      OFFSET 0 11.7043 -0.48768
      CHANNELS 3 Zrotation Xrotation Yrotation
      JOINT neck
      {
        OFFSET 0 22.1894 -2.19456
        CHANNELS 3 Zrotation Xrotation Yrotation
        JOINT head
        {
          OFFSET -0.24384 7.07133 1.2192
          CHANNELS 3 Zrotation Xrotation Yrotation
          JOINT leftEye
          {
            OFFSET 4.14528 8.04674 8.04672
            CHANNELS 3 Zrotation Xrotation Yrotation
            End Site
            {
              OFFSET 1 0 0
            }
          }
          JOINT rightEye
          {
            OFFSET -3.6576 8.04674 8.04672
            CHANNELS 3 Zrotation Xrotation Yrotation
            End Site
            {
              OFFSET 1 0 0
            }
          }
        }
      }
      JOINT rCollar
      {
        OFFSET -2.68224 19.2634 -4.8768
        CHANNELS 3 Zrotation Xrotation Yrotation
        JOINT rShldr
        {
          OFFSET -8.77824 -1.95073 1.46304
          CHANNELS 3 Zrotation Xrotation Yrotation
          JOINT rForeArm
          {
            OFFSET -28.1742 -1.7115 0.48768
            CHANNELS 3 Zrotation Xrotation Yrotation
            JOINT rHand
            {
              OFFSET -22.5879 0.773209 7.07136
              CHANNELS 3 Zrotation Xrotation Yrotation
              JOINT rThumb1
              {
                OFFSET -1.2192 -0.487915 3.41376
                CHANNELS 3 Zrotation Xrotation Yrotation
                JOINT rThumb2
                {
                  OFFSET -3.37035 -0.52449 3.41376
                  CHANNELS 3 Zrotation Xrotation Yrotation
                  End Site
                  {
                    OFFSET -1.78271 -1.18214 1.43049
                  }
                }
              }
              JOINT rIndex1
              {
                OFFSET -7.75947 0.938293 5.60832
                CHANNELS 3 Zrotation Xrotation Yrotation
                JOINT rIndex2
                {
                  OFFSET -2.54057 -0.884171 1.56538
                  CHANNELS 3 Zrotation Xrotation Yrotation
                  End Site
                  {
                    OFFSET -1.62519 -0.234802 1.16502
                  }
                }
              }
              JOINT rMid1
              {
                OFFSET -8.24714 1.18213 3.41376
                CHANNELS 3 Zrotation Xrotation Yrotation
                JOINT rMid2
                {
                  OFFSET -3.10165 -0.590103 1.0647
                  CHANNELS 3 Zrotation Xrotation Yrotation
                  End Site
                  {
                    OFFSET -2.48547 -0.328903 0.83742
                  }
                }
              }
              JOINT rRing1
              {
                OFFSET -8.82822 0.546677 1.51678
                CHANNELS 3 Zrotation Xrotation Yrotation
                JOINT rRing2
                {
                  OFFSET -2.60934 -0.819778 -0.0198488
                  CHANNELS 3 Zrotation Xrotation Yrotation
                  End Site
                  {
                    OFFSET -2.33842 -0.294052 0.168128
                  }
                }
              }
              JOINT rPinky1
              {
                OFFSET -8.27202 -0.0477905 -0.4584
                CHANNELS 3 Zrotation Xrotation Yrotation
                JOINT rPinky2
                {
                  OFFSET -1.82734 -0.647385 -0.700984
                  CHANNELS 3 Zrotation Xrotation Yrotation
                  End Site
                  {
                    OFFSET -1.69225 -0.51767 -0.607171
                  }
                }
              }
            }
          }
        }
      }
      JOINT lCollar
      {
        OFFSET 2.68224 19.2634 -4.8768
        CHANNELS 3 Zrotation Xrotation Yrotation
        JOINT lShldr
        {
          OFFSET 8.77824 -1.95073 1.46304
          CHANNELS 3 Zrotation Xrotation Yrotation
          JOINT lForeArm
          {
            OFFSET 28.1742 -1.7115 0.48768
            CHANNELS 3 Zrotation Xrotation Yrotation
            JOINT lHand
            {
              OFFSET 22.5879 0.773209 7.07136
              CHANNELS 3 Zrotation Xrotation Yrotation
              JOINT lThumb1
              {
                OFFSET 1.2192 -0.487915 3.41376
                CHANNELS 3 Zrotation Xrotation Yrotation
                JOINT lThumb2
                {
                  OFFSET 3.37035 -0.52449 3.41376
                  CHANNELS 3 Zrotation Xrotation Yrotation
                  End Site
                  {
                    OFFSET 1.78271 -1.18214 1.43049
                  }
                }
              }
              JOINT lIndex1
              {
                OFFSET 7.75947 0.938293 5.60832
                CHANNELS 3 Zrotation Xrotation Yrotation
                JOINT lIndex2
                {
                  OFFSET 2.54057 -0.884171 1.56538
                  CHANNELS 3 Zrotation Xrotation Yrotation
                  End Site
                  {
                    OFFSET 1.62519 -0.234802 1.16502
                  }
                }
              }
              JOINT lMid1
              {
                OFFSET 8.24714 1.18213 3.41376
                CHANNELS 3 Zrotation Xrotation Yrotation
                JOINT lMid2
                {
                  OFFSET 3.10165 -0.590103 1.0647
                  CHANNELS 3 Zrotation Xrotation Yrotation
                  End Site
                  {
                    OFFSET 2.48547 -0.328903 0.83742
                  }
                }
              }
              JOINT lRing1
              {
                OFFSET 8.82822 0.546677 1.51678
                CHANNELS 3 Zrotation Xrotation Yrotation
                JOINT lRing2
                {
                  OFFSET 2.60934 -0.819778 -0.0198488
                  CHANNELS 3 Zrotation Xrotation Yrotation
                  End Site
                  {
                    OFFSET 2.33842 -0.294052 0.168128
                  }
                }
              }
              JOINT lPinky1
              {
                OFFSET 8.27202 -0.0477905 -0.4584
                CHANNELS 3 Zrotation Xrotation Yrotation
                JOINT lPinky2
                {
                  OFFSET 1.82734 -0.647385 -0.700984
                  CHANNELS 3 Zrotation Xrotation Yrotation
                  End Site
                  {
                    OFFSET 1.69225 -0.51767 -0.607171
                  }
                }
              }
            }
          }
        }
      }
    }
  }
  JOINT rButtock
  {
    OFFSET -8.77824 4.35084 1.2192
    CHANNELS 3 Zrotation Xrotation Yrotation
    JOINT rThigh
    {
      OFFSET 0 -1.70687 -2.19456
      CHANNELS 3 Zrotation Xrotation Yrotation
      JOINT rShin
      {
        OFFSET 0 -36.8199 0.73152
        CHANNELS 3 Zrotation Xrotation Yrotation
        JOINT rFoot
        {
          OFFSET 0.73152 -45.1104 -5.12064
          CHANNELS 3 Zrotation Xrotation Yrotation
          End Site
          {
            OFFSET -1.1221 -3.69964 12.103
          }
        }
      }
    }
  }
  JOINT lButtock
  {
    OFFSET 8.77824 4.35084 1.2192
    CHANNELS 3 Zrotation Xrotation Yrotation
    JOINT lThigh
    {
      OFFSET 0 -1.70687 -2.19456
      CHANNELS 3 Zrotation Xrotation Yrotation
      JOINT lShin
      {
        OFFSET 0 -36.8199 0.73152
        CHANNELS 3 Zrotation Xrotation Yrotation
        JOINT lFoot
        {
          OFFSET -0.73152 -45.1104 -5.12064
          CHANNELS 3 Zrotation Xrotation Yrotation
          End Site
          {
            OFFSET 1.1221 -3.69964 12.103
          }
        }
      }
    }
  }
}
MOTION
Frames:	5
Frame Time:	0.00833333
-3.37237 84.2564 36.558 0.943673 0.00141494 -0.0174858 -1.24151 -0.00398119 -0.0340789 -0.342494 -0.00249265 -0.0593272 1.10682e-014 -7.95139e-016 -5.34234e-016 3.26411e-014 3.18055e-015 -1.68035e-015 -0 0 0 -0 0 0 5.56479e-015 -7.37677e-018 -4.96962e-017 1.15708e-013 -5.71506e-016 -3.97569e-015 1.94635e-012 -5.91782e-013 -1.39944e-013 2.22641e-011 5.22307e-013 -1.06231e-012 5.25068e-011 -1.46222e-013 -2.58897e-012 9.06661e-011 -2.48083e-013 -4.48458e-012 5.2511e-011 -1.4392e-013 -2.60487e-012 7.73091 5.47488 0.417314 5.25085e-011 -1.4561e-013 -2.58897e-012 2.90554 0.965183 0.102902 5.25176e-011 -1.4561e-013 -2.59215e-012 10.2786 0.731801 0.0259123 5.25044e-011 -1.45908e-013 -2.58579e-012 2.22167 -0.733487 -0.20892 5.46813e-015 -8.15328e-018 -4.47265e-016 1.10578e-013 -4.5969e-016 -6.36111e-015 1.94923e-012 5.68524e-013 -1.27222e-013 2.22349e-011 -6.23339e-013 -1.05912e-012 5.24595e-011 -1.18509e-013 -2.60169e-012 9.05989e-011 -2.06736e-013 -4.47425e-012 5.24537e-011 -1.14102e-013 -2.59533e-012 -7.73091 5.47488 -0.417314 5.24596e-011 -1.18376e-013 -2.60169e-012 -2.90554 0.965183 -0.102902 5.24528e-011 -1.18078e-013 -2.59533e-012 -10.2786 0.731801 -0.0259123 5.24607e-011 -1.18078e-013 -2.60169e-012 -2.22167 -0.733487 0.20892 -2.03217e-016 0 -3.88251e-019 -0.453832 -1.92099 -0.00952725 -0.00915566 -2.07857 -0.0755527 -0.487461 3.99699 0.136654 2.03217e-016 0 3.88251e-019 -1.43727 -5.97115 0.129662 -0.00126424 5.25795 -0.0454139 0.507818 0.710744 -0.0722744 
-4.89493 83.7876 35.4362 0.273983 0.658057 -0.944647 -1.03799 -0.317537 0.915776 -0.337933 -0.572333 0.217439 -0.117885 1.17617 -0.696778 1.10995 0.833214 -1.38225 -0 0 0 -0 0 0 2.05064e-014 3.72312e-014 1.23243e-014 23.2382 7.58561 -4.47937 -6.87578 -3.92959 9.72114 0.0243777 3.46451 0.483695 -1.1668e-010 2.85526e-010 -9.04155e-011 -2.02529e-010 4.93605e-010 -1.54841e-010 -1.16676e-010 2.85529e-010 -9.04343e-011 7.73091 5.47488 0.417314 -1.1668e-010 2.85528e-010 -9.04193e-011 2.90554 0.965183 0.102902 -1.16672e-010 2.85528e-010 -9.04202e-011 10.2786 0.731801 0.0259123 -1.16683e-010 2.85527e-010 -9.04124e-011 2.22167 -0.733487 -0.20892 2.0398e-014 3.72299e-014 1.19958e-014 -23.0625 8.24506 1.76664 5.42083 -2.76126 -8.11801 -0.0188698 3.04951 -0.426394 -1.12772e-010 -7.71449e-011 -2.27672e-011 -1.94708e-010 -1.31911e-010 -3.78553e-011 -1.12778e-010 -7.71395e-011 -2.2758e-011 -7.73091 5.47488 -0.417314 -1.12771e-010 -7.71443e-011 -2.27635e-011 -2.90554 0.965183 -0.102902 -1.12777e-010 -7.71438e-011 -2.27619e-011 -10.2786 0.731801 -0.0259123 -1.12769e-010 -7.71422e-011 -2.27671e-011 -2.22167 -0.733487 0.20892 -2.03217e-016 0 -3.88251e-019 -6.24897 -2.17023 -0.0102257 -0.00637082 -1.74963 -0.054917 -0.240422 3.91489 0.0991137 2.03217e-016 0 3.88251e-019 1.14108 -6.56275 -1.71991 -0.0222928 9.63705 -0.184482 0.958535 -5.38007 5.15202 
-4.89923 83.7838 35.4248 -0.411319 1.35178 -1.92594 -0.810915 -0.649431 1.92049 -0.326892 -1.17429 0.510246 -0.20991 2.42112 -1.43443 2.32429 1.70713 -2.8446 -0 0 0 -0 0 0 3.72225e-014 7.85543e-014 2.39194e-014 49.1305 15.4485 -9.47939 -12.713 -7.70598 20.1401 -0.0139085 7.12716 1.00108 -3.00076e-010 5.97856e-010 -1.91008e-010 -5.20397e-010 1.03359e-009 -3.27148e-010 -3.00072e-010 5.97859e-010 -1.9103e-010 7.73091 5.47488 0.417314 -3.00077e-010 5.9786e-010 -1.91016e-010 2.90554 0.965183 0.102902 -3.0007e-010 5.9786e-010 -1.91014e-010 10.2786 0.731801 0.0259123 -3.00079e-010 5.97859e-010 -1.91005e-010 2.22167 -0.733487 -0.20892 3.71006e-014 7.85524e-014 2.36647e-014 -48.0183 16.9308 3.75804 10.3045 -5.49138 -16.7526 0.0107785 6.26107 -0.879556 -2.93685e-010 -1.62638e-010 -4.78212e-011 -5.07119e-010 -2.78141e-010 -7.95437e-011 -2.93691e-010 -1.62632e-010 -4.78089e-011 -7.73091 5.47488 -0.417314 -2.93683e-010 -1.62637e-010 -4.78135e-011 -2.90554 0.965183 -0.102902 -2.93687e-010 -1.62636e-010 -4.7817e-011 -10.2786 0.731801 -0.0259123 -2.93679e-010 -1.62633e-010 -4.78208e-011 -2.22167 -0.733487 0.20892 -2.03217e-016 0 -3.88251e-019 -12.3753 -2.43372 -0.0109643 -0.00368435 -1.40193 -0.0331102 0.020623 3.82812 0.059436 2.03217e-016 0 3.88251e-019 3.8252 -7.17897 -3.68067 -0.0206973 14.2662 -0.336726 2.65842 -11.6578 10.8547 
-4.90212 83.782 35.4189 -1.00164 1.96926 -2.80044 -0.599775 -0.94363 2.81583 -0.312289 -1.71187 0.771282 -0.267717 3.52641 -2.09386 3.45044 2.49382 -4.15025 -0 0 0 -0 0 0 5.03896e-014 1.11708e-013 3.70722e-014 73.4757 22.1785 -14.4067 -16.7645 -10.4327 29.6315 -0.104823 10.3905 1.47259 -4.55053e-010 8.56869e-010 -2.66068e-010 -7.88919e-010 1.48131e-009 -4.55553e-010 -4.5505e-010 8.56873e-010 -2.66093e-010 7.73091 5.47488 0.417314 -4.55056e-010 8.56875e-010 -2.6608e-010 2.90554 0.965183 0.102902 -4.5505e-010 8.56875e-010 -2.66076e-010 10.2786 0.731801 0.0259123 -4.55056e-010 8.56874e-010 -2.66066e-010 2.22167 -0.733487 -0.20892 5.02578e-014 1.11706e-013 3.68819e-014 -70.8401 24.6363 5.7721 13.9764 -7.62 -24.5565 0.0810375 9.14648 -1.29382 -4.43236e-010 -2.31198e-010 -6.30982e-011 -7.65323e-010 -3.9532e-010 -1.04617e-010 -4.43242e-010 -2.3119e-010 -6.30834e-011 -7.73091 5.47488 -0.417314 -4.43233e-010 -2.31196e-010 -6.30871e-011 -2.90554 0.965183 -0.102902 -4.43236e-010 -2.31195e-010 -6.3095e-011 -10.2786 0.731801 -0.0259123 -4.43227e-010 -2.3119e-010 -6.30978e-011 -2.22167 -0.733487 0.20892 -2.03217e-016 0 -3.88251e-019 -17.8393 -2.66873 -0.0116239 -0.001512 -1.09174 -0.0136707 0.253333 3.75068 0.0240557 2.03217e-016 0 3.88251e-019 6.18262 -7.7203 -5.43321 0.00270153 18.3948 -0.4797 5.27189 -16.9632 16.258 
-4.90643 83.7823 35.4106 -1.39959 2.39809 -3.40654 -0.450611 -1.14457 3.4374 -0.300437 -2.08863 0.952589 -0.300941 4.28455 -2.55432 4.27229 3.06792 -5.06095 -0 0 0 -0 0 0 5.46842e-014 1.2444e-013 5.41191e-014 91.2233 26.6257 -18.228 -19.0228 -11.8301 36.3572 -0.200654 12.6586 1.80887 -5.38983e-010 9.82591e-010 -2.773e-010 -9.34078e-010 1.69839e-009 -4.742e-010 -5.3898e-010 9.82595e-010 -2.77325e-010 7.73091 5.47488 0.417314 -5.38987e-010 9.82598e-010 -2.77313e-010 2.90554 0.965183 0.102902 -5.38981e-010 9.82598e-010 -2.77308e-010 10.2786 0.731801 0.0259123 -5.38987e-010 9.82597e-010 -2.77297e-010 2.22167 -0.733487 -0.20892 5.45516e-014 1.24437e-013 5.397e-014 -87.1235 29.9839 7.39915 16.1982 -8.8727 -30.0921 0.156887 11.2184 -1.59731 -5.14382e-010 -2.57421e-010 -5.39327e-011 -8.88007e-010 -4.39874e-010 -8.81538e-011 -5.14387e-010 -2.57414e-010 -5.39168e-011 -7.73091 5.47488 -0.417314 -5.14377e-010 -2.5742e-010 -5.39199e-011 -2.90554 0.965183 -0.102902 -5.1438e-010 -2.57419e-010 -5.39303e-011 -10.2786 0.731801 -0.0259123 -5.14371e-010 -2.57413e-010 -5.39327e-011 -2.22167 -0.733487 0.20892 -2.03217e-016 0 -3.88251e-019 -21.6474 -2.83253 -0.0120849 -0.000123441 -0.875367 -0.000134198 0.415432 3.69652 -0.00059654 2.03217e-016 0 3.88251e-019 7.80431 -8.09437 -6.6547 0.0322609 21.2721 -0.58485 7.72847 -20.4131 20.273 
